<svg width="206" height="148" viewBox="0 0 206 148" fill="none" xmlns="http://www.w3.org/2000/svg">
<path d="M25.1753 147.39C23.9568 126.866 54.2923 81.104 82.471 59.8206C112.876 36.7504 133.807 29.3459 182.593 24.7473C180.631 22.5371 178.83 20.9025 177.487 19.1706C175.871 17.2622 174.182 15.2285 173.08 13.0231C172.719 12.3963 173.225 10.5998 173.924 10.029C174.623 9.45813 176.416 9.59317 177.035 10.0715C182.824 14.7523 188.355 19.5816 194.088 24.4621C195.889 26.0966 195.986 28.0464 194.162 29.9354C186.961 36.7674 179.832 43.7246 172.43 50.5054C170.718 51.9952 168.114 52.8303 165.542 54.3152C164.487 47.7367 169.479 45.6906 172.026 42.3812C174.63 38.8722 177.853 35.8414 181.485 31.7384C166.758 30.8808 153.422 32.7301 140.384 36.5803C92.5253 50.5057 58.8664 81.3047 36.4162 124.687C33.5236 130.369 31.3063 136.329 28.6147 142.062C27.5619 143.505 26.6378 144.874 25.1753 147.39Z" fill="#2C2C2E"/>
</svg>
